<?xml version="1.0" standalone="no"?>
<!DOCTYPE svg PUBLIC "-//W3C//DTD SVG 20010904//EN"
 "http://www.w3.org/TR/2001/REC-SVG-20010904/DTD/svg10.dtd">
<svg version="1.0" xmlns="http://www.w3.org/2000/svg"
 width="2000.000000pt" height="2000.000000pt" viewBox="0 0 2000.000000 2000.000000"
 preserveAspectRatio="xMidYMid meet">

<g transform="translate(0.000000,2000.000000) scale(0.100000,-0.100000)"
fill="#000000" stroke="none">
<path d="M0 10000 l0 -10000 10000 0 10000 0 0 10000 0 10000 -10000 0 -10000
0 0 -10000z m10180 8970 c1182 -66 2162 -365 3055 -933 356 -226 625 -436 947
-740 176 -166 177 -167 223 -167 113 0 305 59 476 146 330 168 689 478 903
777 26 37 50 67 52 67 8 0 -80 -239 -133 -360 -479 -1104 -1685 -2430 -3191
-3509 -436 -312 -1008 -660 -1379 -838 l-112 -54 -107 70 c-456 301 -957 367
-1459 191 -111 -39 -291 -132 -399 -206 l-81 -56 -155 77 c-736 366 -1606 966
-2365 1630 -310 271 -777 731 -1016 1000 -610 687 -1013 1313 -1238 1924 -23
61 -41 116 -41 121 0 6 35 -35 77 -92 107 -143 368 -402 525 -519 295 -221
573 -348 801 -366 l77 -6 133 129 c754 738 1666 1253 2664 1508 484 123 920
185 1528 215 17 0 113 -4 215 -9z m-5425 -3317 c10 -16 70 -98 134 -183 234
-314 510 -645 729 -871 l115 -120 -85 -177 c-124 -256 -185 -428 -228 -641
-162 -802 189 -1556 925 -1986 346 -203 810 -323 1256 -325 l66 0 -12 -72
c-20 -115 -44 -341 -51 -478 -3 -69 -7 -141 -9 -160 -2 -19 -4 -69 -4 -111
l-1 -76 -252 -146 c-139 -80 -437 -252 -663 -382 -225 -130 -551 -318 -723
-417 -172 -100 -309 -184 -305 -189 4 -4 85 -50 178 -102 838 -466 1428 -801
1515 -861 477 -325 953 -1079 1415 -2241 282 -708 502 -1385 930 -2861 86
-296 186 -636 222 -754 36 -118 70 -232 76 -254 7 -27 12 -34 18 -24 12 21
150 482 309 1033 278 961 485 1631 657 2125 464 1333 906 2196 1396 2724 153
166 289 264 627 453 107 60 459 257 782 438 l588 329 -68 39 c-37 22 -197 115
-357 207 -159 92 -436 252 -615 355 -179 103 -442 255 -585 337 -143 83 -276
160 -296 173 l-36 23 -6 204 c-7 208 -26 420 -53 587 -8 52 -13 95 -12 96 2 1
71 5 153 9 545 25 1004 180 1390 469 112 84 327 304 407 417 136 191 247 445
298 685 27 126 38 425 21 571 -32 274 -104 500 -260 820 l-78 159 139 149
c178 190 329 367 500 581 136 171 336 439 345 463 3 6 9 12 13 12 12 0 185
-336 270 -524 315 -697 489 -1381 540 -2116 5 -81 10 -585 10 -1140 1 -1501
13 -2091 55 -2620 137 -1720 577 -3338 1301 -4778 61 -122 110 -222 108 -222
-2 0 -237 188 -522 418 -284 229 -746 602 -1026 827 -280 226 -512 410 -517
410 -5 0 -250 -391 -545 -870 -295 -478 -624 -1013 -732 -1188 l-196 -318 -50
50 c-274 265 -1491 1400 -1497 1394 -6 -7 -1985 -3216 -2318 -3760 -75 -122
-139 -223 -143 -223 -3 0 -248 393 -544 873 -295 479 -787 1277 -1092 1772
-305 495 -616 1000 -691 1122 -75 122 -139 221 -143 220 -3 -1 -349 -325 -768
-720 -420 -395 -767 -716 -772 -715 -9 3 -825 1322 -1291 2085 -95 155 -177
280 -183 278 -6 -2 -119 -90 -250 -196 -132 -106 -552 -445 -934 -753 -382
-308 -735 -593 -784 -633 -49 -40 -91 -71 -93 -69 -2 2 26 59 61 127 165 315
398 841 541 1219 512 1354 792 2796 844 4355 4 127 8 799 9 1495 2 1259 4
1358 23 1625 45 639 201 1268 475 1920 62 146 314 655 325 655 4 0 15 -12 24
-27z m1907 -1976 c502 -380 1039 -719 1623 -1023 l170 -88 -110 -52 c-130 -62
-292 -116 -430 -145 -145 -29 -414 -37 -563 -15 -334 49 -623 196 -797 404
-72 85 -151 244 -171 342 -25 117 -15 338 20 454 26 88 86 246 92 246 2 0 77
-55 166 -123z m6881 18 c102 -257 113 -505 31 -711 -97 -248 -344 -461 -653
-564 -187 -63 -264 -74 -511 -74 -247 0 -326 11 -529 75 -93 30 -331 136 -331
148 0 4 53 33 118 65 523 260 1200 685 1702 1070 69 52 128 92 131 88 4 -4 23
-48 42 -97z m-3328 -975 c283 -72 630 -359 837 -692 185 -298 290 -638 344
-1115 13 -109 18 -247 19 -528 2 -367 2 -382 24 -429 29 -66 83 -131 134 -160
31 -17 724 -415 790 -453 5 -3 -46 -38 -113 -78 -506 -307 -929 -742 -1266
-1302 -302 -500 -547 -1110 -889 -2213 -93 -298 -92 -296 -99 -289 -3 2 -63
189 -135 414 -278 876 -428 1275 -647 1715 -381 765 -865 1315 -1478 1680 -84
50 -104 66 -94 75 13 12 645 376 746 431 71 37 145 120 171 189 20 52 21 76
21 390 0 184 5 392 11 462 66 803 318 1332 818 1717 135 104 282 171 439 201
99 19 261 12 367 -15z"/>
</g>
</svg>
