<?xml version="1.0" encoding="UTF-8"?>
<!DOCTYPE svg PUBLIC "-//W3C//DTD SVG 1.1//EN" "http://www.w3.org/Graphics/SVG/1.1/DTD/svg11.dtd">
<svg xmlns="http://www.w3.org/2000/svg" version="1.1" width="2500px" height="2500px" style="shape-rendering:geometricPrecision; text-rendering:geometricPrecision; image-rendering:optimizeQuality; fill-rule:evenodd; clip-rule:evenodd" xmlns:xlink="http://www.w3.org/1999/xlink">
<g><path style="opacity:0.995" fill="#000000" d="M 1199.5,-0.5 C 1232.83,-0.5 1266.17,-0.5 1299.5,-0.5C 1613.85,15.9048 1885.18,131.072 2113.5,345C 2336.21,561.608 2463.37,825.442 2495,1136.5C 2496.63,1157.65 2498.13,1178.65 2499.5,1199.5C 2499.5,1232.83 2499.5,1266.17 2499.5,1299.5C 2483.18,1613.34 2368.35,1884.34 2155,2112.5C 1938.24,2335.78 1674.07,2463.28 1362.5,2495C 1341.35,2496.63 1320.35,2498.13 1299.5,2499.5C 1266.17,2499.5 1232.83,2499.5 1199.5,2499.5C 885.663,2483.18 614.663,2368.35 386.5,2155C 163.217,1938.24 35.717,1674.07 4,1362.5C 2.36718,1341.35 0.867176,1320.35 -0.5,1299.5C -0.5,1266.17 -0.5,1232.83 -0.5,1199.5C 15.9048,885.154 131.072,613.821 345,385.5C 561.608,162.795 825.442,35.6283 1136.5,4C 1157.65,2.36718 1178.65,0.867176 1199.5,-0.5 Z M 1976.5,239.5 C 1963.58,279.004 1946.08,316.337 1924,351.5C 1887.68,409.17 1846.02,462.837 1799,512.5C 1685.69,632.207 1557.19,731.707 1413.5,811C 1401.62,817.108 1389.62,822.942 1377.5,828.5C 1292.06,769.864 1206.56,769.864 1121,828.5C 1066.31,802.255 1014.15,772.089 964.5,738C 843.357,655.888 735.523,558.388 641,445.5C 603.185,399.245 570.852,349.245 544,295.5C 535.457,277.184 528.123,258.517 522,239.5C 551.911,278.419 587.744,310.586 629.5,336C 652.576,349.47 677.409,357.303 704,359.5C 835.533,225.681 995.367,149.848 1183.5,132C 1314.39,121.759 1440.06,142.759 1560.5,195C 1645.06,233.426 1720.06,285.426 1785.5,351C 1788.56,353.723 1791.89,356.056 1795.5,358C 1810.4,358.554 1824.73,355.888 1838.5,350C 1881.6,331.524 1919.1,305.024 1951,270.5C 1960,260.464 1968.5,250.131 1976.5,239.5 Z M 2189.5,1960.5 C 2110.86,1898.16 2032.53,1835.33 1954.5,1772C 1948.01,1766.92 1941.34,1762.09 1934.5,1757.5C 1932.54,1758.75 1931.04,1760.41 1930,1762.5C 1869.75,1859.33 1809.75,1956.33 1750,2053.5C 1686.57,1992.4 1622.24,1932.4 1557,1873.5C 1459.83,2029.83 1363.17,2186.5 1267,2343.5C 1261.25,2352.67 1255.25,2361.67 1249,2370.5C 1151.83,2214.17 1055.17,2057.5 959,1900.5C 953.315,1891.12 947.148,1882.12 940.5,1873.5C 876.801,1933.2 812.801,1992.53 748.5,2051.5C 691.044,1961.19 634.544,1870.19 579,1778.5C 574.726,1770.94 569.726,1763.94 564,1757.5C 560.098,1759.87 556.265,1762.37 552.5,1765C 471.319,1830.75 389.986,1896.25 308.5,1961.5C 416.247,1748.86 475.413,1523.19 486,1284.5C 487.104,1254.51 487.771,1224.51 488,1194.5C 488.128,1091.16 488.795,987.828 490,884.5C 494.324,791.205 515.324,701.872 553,616.5C 565.155,590.857 577.822,565.523 591,540.5C 628.807,593.196 670.307,643.03 715.5,690C 702,715.167 690.834,741.333 682,768.5C 654.051,879.349 686.551,967.516 779.5,1033C 820.207,1058.46 864.541,1073.79 912.5,1079C 927.476,1080.35 942.476,1081.35 957.5,1082C 954.478,1097.67 952.312,1113.5 951,1129.5C 949.549,1150.49 948.216,1171.49 947,1192.5C 869.085,1237.54 791.251,1282.71 713.5,1328C 710.319,1330.09 707.319,1332.43 704.5,1335C 777.15,1374.99 849.15,1415.99 920.5,1458C 946.436,1478.6 968.936,1502.44 988,1529.5C 1018.34,1573.83 1044.34,1620.83 1066,1670.5C 1104.59,1759.03 1137.59,1849.7 1165,1942.5C 1192.81,2035.76 1220.31,2129.09 1247.5,2222.5C 1248.5,2222.5 1249.5,2222.5 1250.5,2222.5C 1278.02,2128.43 1305.86,2034.43 1334,1940.5C 1361.95,1846.31 1395.62,1754.31 1435,1664.5C 1456.63,1616.29 1482.3,1570.63 1512,1527.5C 1530.01,1501.49 1551.51,1478.66 1576.5,1459C 1586.23,1452.27 1596.23,1445.94 1606.5,1440C 1669.52,1405.16 1732.19,1369.83 1794.5,1334C 1713.53,1286.85 1632.53,1239.68 1551.5,1192.5C 1550.1,1155.32 1546.76,1118.32 1541.5,1081.5C 1604.77,1082.18 1663.44,1066.35 1717.5,1034C 1810.36,969.057 1843.52,881.223 1817,770.5C 1808.28,742.829 1797.11,716.162 1783.5,690.5C 1828.25,643.265 1869.42,593.265 1907,540.5C 1967.11,645.161 2000.77,757.828 2008,878.5C 2008.84,982.499 2009.5,1086.5 2010,1190.5C 2008.81,1402.37 2045.48,1607.37 2120,1805.5C 2141,1858.17 2164.17,1909.83 2189.5,1960.5 Z M 811.5,775.5 C 887.544,833.951 968.544,885.118 1054.5,929C 1004.14,956.087 951.139,963.087 895.5,950C 866.073,942.21 840.906,927.377 820,905.5C 794.908,872.781 789.241,836.781 803,797.5C 805.572,790.03 808.405,782.697 811.5,775.5 Z M 1685.5,776.5 C 1686.75,776.577 1687.58,777.244 1688,778.5C 1719.36,852.777 1698.86,907.277 1626.5,942C 1593.68,955.01 1559.68,959.344 1524.5,955C 1495.86,951.675 1469.2,942.675 1444.5,928C 1529.95,884.978 1610.29,834.478 1685.5,776.5 Z M 1240.5,906.5 C 1264.25,905.214 1286.25,910.714 1306.5,923C 1357.68,955.891 1391.85,1001.72 1409,1060.5C 1416.44,1086.7 1421.44,1113.37 1424,1140.5C 1424.86,1178.21 1426.2,1215.88 1428,1253.5C 1431.65,1262.14 1437.15,1269.31 1444.5,1275C 1477.66,1293.75 1510.66,1312.75 1543.5,1332C 1473.43,1373.4 1417.26,1428.9 1375,1498.5C 1349.99,1540.18 1328.99,1583.85 1312,1629.5C 1305.47,1646.76 1299.14,1664.09 1293,1681.5C 1278.31,1726.22 1263.65,1770.89 1249,1815.5C 1228.46,1748.86 1206.12,1682.86 1182,1617.5C 1157.29,1554.38 1124.62,1496.05 1084,1442.5C 1047.64,1397.96 1004.81,1361.29 955.5,1332.5C 986.496,1313.04 1018.16,1294.54 1050.5,1277C 1062.62,1268.92 1069.78,1257.75 1072,1243.5C 1072.2,1211.15 1072.86,1178.82 1074,1146.5C 1076.72,1096.29 1089.72,1048.95 1113,1004.5C 1134.93,967.234 1164.77,938.067 1202.5,917C 1214.81,911.722 1227.48,908.222 1240.5,906.5 Z"/></g>
</svg>
